<svg width="144" height="90" viewBox="0 0 144 90" fill="none" xmlns="http://www.w3.org/2000/svg">
<g clip-path="url(#clip0_108_627)">
<path d="M32.8434 2.52769C35.3969 0.974849 38.6031 0.974851 41.1566 2.52769L70.1566 20.1628C72.5432 21.6141 74 24.205 74 26.9982V63.0018C74 65.795 72.5432 68.3859 70.1566 69.8372L41.1566 87.4723C38.6031 89.0251 35.3969 89.0251 32.8434 87.4723L3.84335 69.8372C1.45681 68.3859 0 65.795 0 63.0018V26.9982C0 24.205 1.45681 21.6141 3.84335 20.1628L32.8434 2.52769Z" fill="#EFEFEF"/>
<g clip-path="url(#clip1_108_627)">
<path d="M64.3245 45.2841C64.532 45.4889 64.8113 45.6044 65.1056 45.6044H104C104.294 45.6044 104.574 45.4927 104.781 45.2841C104.989 45.0792 105.106 44.8036 105.106 44.513C105.117 36.6276 100.427 29.4163 93.1633 26.1422L92.786 25.9745L93.0803 25.6915C95.4159 23.4417 96.7252 20.4283 96.7667 17.2063C96.8082 13.9843 95.5744 10.9411 93.2954 8.63544C90.9069 6.2143 87.7299 5 84.5528 5C81.3757 5 78.3949 6.13607 76.0215 8.42312C73.6859 10.6729 72.3766 13.6863 72.3351 16.9083C72.2936 20.1303 73.5274 23.1735 75.8065 25.4791C75.8781 25.5499 75.9498 25.6207 76.0215 25.6915L76.3196 25.9745L75.9423 26.1459C68.6788 29.42 63.9887 36.6276 64 44.5093C64 44.7999 64.1132 45.0755 64.3245 45.2804V45.2841ZM74.5462 17.0871C74.5424 11.6414 79.025 7.2051 84.5415 7.20138H84.549C90.0617 7.20138 94.5481 11.6265 94.5556 17.0685C94.5556 19.7056 93.518 22.1864 91.6314 24.0563C89.7448 25.9224 87.2318 26.9542 84.5603 26.9542H84.5528C82.6096 26.9542 80.723 26.4029 79.0967 25.3562C76.2555 23.5273 74.5537 20.4357 74.55 17.0871H74.5462ZM66.264 43.1199C66.8035 36.0353 71.5314 29.9154 78.3081 27.5241L78.4326 27.4794L78.5458 27.5464C82.2474 29.677 86.8507 29.677 90.5522 27.5464L90.6654 27.4794L90.7899 27.5241C97.5667 29.9117 102.295 36.0353 102.838 43.1199L102.861 43.4217H66.2413L66.264 43.1199Z" fill="#1A4D70"/>
<path d="M115.112 37.3763C115.282 37.3763 115.456 37.3354 115.607 37.2609L126.485 31.8897H142.895C143.506 31.8897 144 31.4017 144 30.7983V8.85902C144 8.56848 143.887 8.29285 143.676 8.08798C143.468 7.88311 143.189 7.76764 142.895 7.76764H109.554C108.947 7.76764 108.449 8.2556 108.449 8.85902V30.802C108.449 31.4054 108.943 31.8934 109.554 31.8934H114.007V36.285C114.007 36.8884 114.505 37.3763 115.112 37.3763ZM110.664 29.7069V9.9504H141.789V29.7069H126.224C126.055 29.7069 125.881 29.7479 125.73 29.8224L116.218 34.5157V30.7983C116.218 30.1949 115.724 29.7069 115.112 29.7069H110.66H110.664Z" fill="#1A4D70"/>
<path d="M134.559 15.9956H117.889C117.278 15.9956 116.784 16.4836 116.784 17.087C116.784 17.6904 117.282 18.1784 117.889 18.1784H134.559C135.171 18.1784 135.665 17.6904 135.665 17.087C135.665 16.4836 135.167 15.9956 134.559 15.9956Z" fill="#1A4D70"/>
<path d="M134.559 21.4788H117.889C117.278 21.4788 116.784 21.9667 116.784 22.5701C116.784 23.1736 117.282 23.6615 117.889 23.6615H134.559C135.171 23.6615 135.665 23.1736 135.665 22.5701C135.665 21.9667 135.167 21.4788 134.559 21.4788Z" fill="#1A4D70"/>
<path d="M129.005 84.0001H142.898C143.509 84.0001 144.004 83.5121 144.004 82.9087C144.015 75.0232 139.325 67.8119 132.061 64.5378L131.684 64.3665L131.978 64.0834C136.801 59.4385 136.899 51.7877 132.194 47.0274C127.488 42.267 119.738 42.1702 114.916 46.8151C112.58 49.0649 111.271 52.0782 111.229 55.3002C111.188 58.5222 112.422 61.5654 114.701 63.8711C114.773 63.9418 114.844 64.0126 114.916 64.0834L115.21 64.3665L114.833 64.5378C107.569 67.8119 102.883 75.0232 102.891 82.905C102.891 83.1955 103.004 83.4711 103.215 83.676C103.423 83.8809 103.702 83.9963 103.996 83.9963H117.889C118.5 83.9963 118.995 83.5047 118.995 82.905C118.995 82.3053 118.497 81.8136 117.889 81.8136H105.136L105.158 81.5119C105.698 74.4273 110.426 68.3073 117.202 65.9197L117.327 65.875L117.44 65.9421C121.142 68.0727 125.745 68.0727 129.447 65.9421L129.56 65.875L129.684 65.9197C136.461 68.3073 141.189 74.431 141.732 81.5156L141.755 81.8173H129.001C128.39 81.8173 127.896 82.309 127.896 82.9087C127.896 83.5084 128.394 84.0001 129.001 84.0001H129.005ZM128.903 63.7556C127.247 64.8023 125.349 65.3238 123.447 65.3238C121.545 65.3238 119.648 64.7986 117.991 63.7519C115.75 62.3104 114.214 60.0978 113.659 57.5165C113.105 54.9352 113.603 52.2943 115.063 50.0855C116.52 47.8729 118.765 46.3569 121.379 45.8094C123.994 45.2618 126.67 45.7535 128.907 47.195C131.148 48.6328 132.684 50.8491 133.239 53.4304C133.793 56.0117 133.295 58.6526 131.835 60.8614C131.069 62.0236 130.081 62.9995 128.903 63.7556Z" fill="#1A4D70"/>
<path d="M98.4458 51.646H65.1056C64.4981 51.646 64 52.1377 64 52.7374V74.6804C64 74.9709 64.1132 75.2465 64.3245 75.4514C64.532 75.6563 64.8112 75.7717 65.1056 75.7717H81.5153L92.3935 81.143C92.6577 81.2733 92.9595 81.2957 93.2387 81.2026C93.518 81.1094 93.7444 80.9157 93.8764 80.655C93.9519 80.506 93.9934 80.3347 93.9934 80.1671V75.7755H98.4458C98.7401 75.7755 99.0193 75.6637 99.2269 75.4551C99.4344 75.2503 99.5514 74.9746 99.5514 74.6841V52.7411C99.5514 52.1377 99.0571 51.6497 98.4458 51.6497V51.646ZM97.3403 73.5853H92.8916C92.2803 73.5853 91.7861 74.0732 91.7861 74.6766V78.3978L82.2737 73.7007C82.119 73.6262 81.9492 73.5853 81.7795 73.5853H66.2111V53.8288H97.3365V73.5853H97.3403Z" fill="#F9572B"/>
<path d="M90.1106 59.8743H73.4405C72.8293 59.8743 72.335 60.3659 72.335 60.9656C72.335 61.5653 72.833 62.057 73.4405 62.057H90.1106C90.7219 62.057 91.2162 61.5653 91.2162 60.9656C91.2162 60.3659 90.7181 59.8743 90.1106 59.8743Z" fill="#F9572B"/>
<path d="M90.1106 65.3608H73.4405C72.8293 65.3608 72.335 65.8525 72.335 66.4522C72.335 67.0519 72.833 67.5436 73.4405 67.5436H90.1106C90.7219 67.5436 91.2162 67.0519 91.2162 66.4522C91.2162 65.8525 90.7181 65.3608 90.1106 65.3608Z" fill="#F9572B"/>
</g>
<path d="M34.56 45.36V42.44H38.4C43.44 42.44 44.24 41.8 44.24 36.96C44.24 33.8 42.68 31.92 36.92 31.92C31.08 31.92 29.68 33.8 29.68 38.48H26.48C26.48 31.52 29.24 29 36.88 29C44.6 29 47.56 31.8 47.56 36.96C47.56 41.84 46.08 43.36 42.68 43.88C47.08 44.44 48.12 46.68 48.12 50.64C48.12 57.72 45.6 59.6 36.96 59.6C30.52 59.6 26 58.48 26 51.24V49.48H29.2V51.24C29.2 55.36 30.6 56.68 36.92 56.68C43.92 56.68 44.8 55.44 44.8 50.64C44.8 46.64 43.08 45.36 38.72 45.36H34.56Z" fill="#1A4D70"/>
</g>
<defs>
<clipPath id="clip0_108_627">
<rect width="144" height="90" fill="white"/>
</clipPath>
<clipPath id="clip1_108_627">
<rect width="80" height="79" fill="white" transform="translate(64 5)"/>
</clipPath>
</defs>
</svg>
