<svg width="32.000000" height="32.000000" viewBox="0 0 32 32" fill="none" xmlns="http://www.w3.org/2000/svg" xmlns:xlink="http://www.w3.org/1999/xlink">
	<desc>
			Created with Pixso.
	</desc>
	<defs>
		<clipPath id="clip117_1553">
			<rect width="32.000000" height="32.000000" fill="white" fill-opacity="0"/>
		</clipPath>
	</defs>
	<rect width="32.000000" height="32.000000" fill="#FFFFFF" fill-opacity="0"/>
	<g clip-path="url(#clip117_1553)">
		<path d="M29.33 8C29.33 6.53 28.13 5.33 26.66 5.33L5.33 5.33C3.86 5.33 2.66 6.53 2.66 8L2.66 24C2.66 25.46 3.86 26.66 5.33 26.66L26.66 26.66C28.13 26.66 29.33 25.46 29.33 24L29.33 8ZM26.66 8L16 14.66L5.33 8L26.66 8ZM26.66 24L5.33 24L5.33 10.66L16 17.33L26.66 10.66L26.66 24Z" fill="#FFFFFF" fill-opacity="1.000000" fill-rule="nonzero"/>
	</g>
</svg>
