<svg width="32.000000" height="32.000000" viewBox="0 0 32 32" fill="none" xmlns="http://www.w3.org/2000/svg" xmlns:xlink="http://www.w3.org/1999/xlink">
	<desc>
			Created with Pixso.
	</desc>
	<defs>
		<clipPath id="clip117_1555">
			<rect width="32.000000" height="32.000000" fill="white" fill-opacity="0"/>
		</clipPath>
	</defs>
	<rect width="32.000000" height="32.000000" fill="#FFFFFF" fill-opacity="0"/>
	<g clip-path="url(#clip117_1555)">
		<path d="M16.11 -0.02C9.55 -0.02 4 5.57 4 12.19C4 19.12 10.43 26.21 14.76 31.19C14.78 31.21 15.48 31.98 16.34 31.98L16.42 31.98C17.28 31.98 17.98 31.21 18 31.19C22.06 26.51 28 18.81 28 12.19C28 5.57 23.66 -0.02 16.11 -0.02ZM16.51 29.84C16.48 29.88 16.42 29.92 16.38 29.95C16.33 29.92 16.28 29.88 16.25 29.84L15.72 29.24C11.62 24.53 6 18.08 6 12.19C6 6.66 10.63 1.98 16.11 1.98C22.94 1.98 26 7.11 26 12.19C26 16.66 22.8 22.6 16.51 29.84ZM16.03 6.04C12.72 6.04 10.03 8.73 10.03 12.04C10.03 15.35 12.72 18.04 16.03 18.04C19.34 18.04 22.03 15.35 22.03 12.04C22.03 8.73 19.34 6.04 16.03 6.04ZM16.03 16.04C13.82 16.04 11.98 14.2 11.98 12C11.98 9.79 13.78 8 15.98 8C18.19 8 19.98 9.79 19.98 12C19.98 14.2 18.24 16.04 16.03 16.04Z" fill="#FFFFFF" fill-opacity="1.000000" fill-rule="nonzero"/>
	</g>
</svg>
